<svg width="90" height="24" viewBox="0 0 90 24" fill="none" xmlns="http://www.w3.org/2000/svg">
<path d="M10.5489 0.00189209C13.3626 0.00189209 15.0227 1.585 15.0227 4.33964V10.0544C15.0227 12.8091 13.3626 14.3922 10.5489 14.3922H0.508318C0.20476 14.3922 0.0429688 14.2279 0.0429688 13.94V0.454131C0.0429688 0.166197 0.20476 0.00189209 0.508318 0.00189209H10.5489ZM4.13203 11.082H9.07116C10.4277 11.082 10.9336 10.671 10.9336 9.49891V4.8941C10.9336 3.7429 10.4277 3.311 9.07116 3.311H4.13203V11.082Z" fill="white"/>
<path d="M36.562 9.86791C36.8456 9.86791 37.0279 10.0322 37.0279 10.3201V10.4432C37.0279 10.8751 37.2103 11.0807 37.6756 11.0807H43.1818C43.8495 11.0807 44.0524 10.8751 44.0524 10.3614V9.43601C44.0524 8.92222 43.8501 8.71671 43.1818 8.71671H36.6226C34.2342 8.71671 33.2419 7.72981 33.2419 5.4274V3.2893C33.2419 0.986898 34.2337 0 36.6226 0H44.5578C47.0274 0 47.8574 0.801721 47.8574 3.22722V4.07015C47.8574 4.35809 47.6957 4.52239 47.3921 4.52239H44.3555C44.0519 4.52239 43.8901 4.35809 43.8901 4.07015V3.94706C43.8901 3.51516 43.7078 3.30964 43.2224 3.30964H38.2021C37.5338 3.30964 37.3315 3.51516 37.3315 4.02894V4.83066C37.3315 5.34445 37.5338 5.54996 38.2021 5.54996H44.7602C47.1486 5.54996 48.141 6.53686 48.141 8.83927V11.1005C48.141 13.4029 47.1491 14.3898 44.7602 14.3898H36.3597C33.8695 14.3898 33.0601 13.588 33.0601 11.1625V10.3196C33.0601 10.0317 33.2219 9.86737 33.5254 9.86737H36.562V9.86791Z" fill="white"/>
<path d="M54.2351 13.9375C54.2351 14.2255 54.0527 14.3898 53.7492 14.3898H50.6113C50.3078 14.3898 50.146 14.2255 50.146 13.9375V0.45224C50.146 0.164305 50.3078 0 50.6113 0H53.7492C54.0527 0 54.2351 0.164305 54.2351 0.45224V13.9375Z" fill="white"/>
<path d="M68.181 4.83066H71.2176C71.5211 4.83066 71.6829 4.66636 71.6829 4.37842V3.22722C71.6829 0.801186 70.8529 0 68.3633 0H59.9828C57.6345 0 56.582 0.986898 56.582 3.2893V11.101C56.582 13.4034 57.6345 14.3903 59.9828 14.3903H65.0437C65.8395 14.3903 69.5923 14.3373 69.9828 14.2126C71.2281 13.8631 71.6835 12.9581 71.6835 11.1631V6.51706C71.6835 6.22913 71.5217 6.06482 71.2181 6.06482H64.8013C64.4977 6.06482 64.3359 6.22913 64.3359 6.51706V8.77826C64.3359 9.06619 64.4977 9.23049 64.8013 9.23049H67.7161V10.4432C67.7161 10.8751 67.5138 11.0807 67.0484 11.0807H62.2305C60.9146 11.0807 60.6716 10.8751 60.6716 9.76515V4.62568C60.6716 3.51569 60.9146 3.31018 62.2305 3.31018H67.0484C67.5138 3.31018 67.7161 3.51569 67.7161 3.94759V4.37949C67.7151 4.66636 67.8774 4.83066 68.181 4.83066Z" fill="white"/>
<path d="M83.7282 14.3898C83.4041 14.3898 83.2017 14.287 83.0805 14.0199L77.7767 3.2893V13.9381C77.7767 14.226 77.5943 14.3903 77.3113 14.3903H74.4771C74.1735 14.3903 74.0117 14.226 74.0117 13.9381V0.452239C74.0117 0.164305 74.1735 0 74.4771 0H79.8009C80.125 0 80.3274 0.102757 80.4486 0.369819L85.7524 11.1213V0.452239C85.7524 0.164305 85.9348 0 86.2383 0H89.052C89.3556 0 89.5174 0.164305 89.5174 0.452239V13.9381C89.5174 14.226 89.3556 14.3903 89.052 14.3903H83.7282V14.3898Z" fill="white"/>
<path d="M1.65428 21.8633C1.78814 21.8633 1.87457 21.9409 1.87457 22.0769V22.1352C1.87457 22.3391 1.96047 22.436 2.18076 22.436H4.78156C5.09724 22.436 5.19262 22.3391 5.19262 22.0961V21.6594C5.19262 21.4165 5.09724 21.3196 4.78156 21.3196H1.68274C0.554414 21.3196 0.0859026 20.8534 0.0859026 19.7659V18.756C0.0859026 17.6685 0.554414 17.2023 1.68274 17.2023H5.43136C6.59816 17.2023 6.99025 17.5812 6.99025 18.7271V19.1253C6.99025 19.2612 6.91384 19.3388 6.77049 19.3388H5.33597C5.19262 19.3388 5.11621 19.2612 5.11621 19.1253V19.0669C5.11621 18.863 5.0303 18.7662 4.80053 18.7662H2.42899C2.11331 18.7662 2.01792 18.8636 2.01792 19.106V19.4849C2.01792 19.7274 2.11383 19.8248 2.42899 19.8248H5.52727C6.6556 19.8248 7.12411 20.2909 7.12411 21.3785V22.4467C7.12411 23.5342 6.6556 24.0004 5.52727 24.0004H1.55889C0.382609 24.0004 0 23.6215 0 22.4756V22.0774C0 21.9415 0.0764165 21.8639 0.219763 21.8639H1.65428V21.8633Z" fill="white"/>
<path d="M18.608 21.6204C18.7514 21.6204 18.8283 21.698 18.8283 21.8339V22.4751C18.8283 23.6209 18.4362 23.9998 17.2599 23.9998H13.5018C12.3925 23.9998 11.8955 23.5337 11.8955 22.4462V18.756C11.8955 17.6685 12.393 17.2023 13.5018 17.2023H17.2599C18.4362 17.2023 18.8283 17.5813 18.8283 18.7271V19.3683C18.8283 19.5042 18.7519 19.5818 18.608 19.5818H17.1735C17.0302 19.5818 16.9537 19.5042 16.9537 19.3683V19.0669C16.9537 18.863 16.8578 18.7662 16.6381 18.7662H14.5632C13.9414 18.7662 13.827 18.8636 13.827 19.3875V21.8152C13.827 22.3397 13.9419 22.4365 14.5632 22.4365H16.6381C16.8578 22.4365 16.9537 22.3397 16.9537 22.1358V21.8339C16.9537 21.698 17.0302 21.6204 17.1735 21.6204H18.608Z" fill="white"/>
<path d="M30.7213 23.7863C30.7213 23.9222 30.6449 23.9998 30.5015 23.9998H29.0096C28.8662 23.9998 28.7898 23.9222 28.7898 23.7863V21.3485H25.5287V23.7863C25.5287 23.9222 25.4428 23.9998 25.2989 23.9998H23.8164C23.6731 23.9998 23.5967 23.9222 23.5967 23.7863V17.4159C23.5967 17.2799 23.6731 17.2023 23.8164 17.2023H25.2989C25.4423 17.2023 25.5287 17.2799 25.5287 17.4159V19.7852H28.7893V17.4159C28.7893 17.2799 28.8657 17.2023 29.0091 17.2023H30.501C30.6444 17.2023 30.7208 17.2799 30.7208 17.4159V23.7863H30.7213Z" fill="white"/>
<path d="M42.1014 17.2023C42.2448 17.2023 42.3212 17.2799 42.3212 17.4159V18.5521C42.3212 18.688 42.2448 18.7656 42.1014 18.7656H37.5307V19.8242H41.3557C41.4896 19.8242 41.5755 19.9019 41.5755 20.0378V21.106C41.5755 21.242 41.4896 21.3196 41.3557 21.3196H37.5307V22.4365H42.1014C42.2448 22.4365 42.3212 22.5141 42.3212 22.6501V23.7863C42.3212 23.9222 42.2448 23.9998 42.1014 23.9998H35.8184C35.6751 23.9998 35.5986 23.9222 35.5986 23.7863V17.4159C35.5986 17.2799 35.6751 17.2023 35.8184 17.2023H42.1014Z" fill="white"/>
<path d="M52.184 17.2023C53.5132 17.2023 54.2973 17.95 54.2973 19.2516V21.9511C54.2973 23.2522 53.5132 24.0004 52.184 24.0004H47.441C47.2976 24.0004 47.2212 23.9228 47.2212 23.7868V17.4159C47.2212 17.2799 47.2976 17.2023 47.441 17.2023H52.184ZM49.1527 22.4365H51.4858C52.1266 22.4365 52.3653 22.2423 52.3653 21.6889V19.5133C52.3653 18.9695 52.1266 18.7656 51.4858 18.7656H49.1527V22.4365Z" fill="white"/>
<path d="M60.9749 21.8152C60.9749 22.3397 61.0898 22.4365 61.7111 22.4365H63.4039C64.0347 22.4365 64.1401 22.3397 64.1401 21.8152V17.4159C64.1401 17.2799 64.2165 17.2023 64.3604 17.2023H65.8524C65.9862 17.2023 66.0721 17.2799 66.0721 17.4159V22.4462C66.0721 23.5337 65.5941 23.9998 64.4753 23.9998H60.6503C59.5314 23.9998 59.0439 23.5337 59.0439 22.4462V17.4159C59.0439 17.2799 59.1204 17.2023 59.2637 17.2023H60.7557C60.899 17.2023 60.9754 17.2799 60.9754 17.4159V21.8152H60.9749Z" fill="white"/>
<path d="M73.1244 22.4365H77.303C77.4464 22.4365 77.5228 22.5141 77.5228 22.6501V23.7863C77.5228 23.9222 77.4464 23.9998 77.303 23.9998H71.4126C71.2693 23.9998 71.1929 23.9222 71.1929 23.7863V17.4159C71.1929 17.2799 71.2693 17.2023 71.4126 17.2023H72.8951C73.0385 17.2023 73.1249 17.2799 73.1249 17.4159V22.4365H73.1244Z" fill="white"/>
<path d="M89.2977 17.2023C89.441 17.2023 89.5174 17.2799 89.5174 17.4159V18.5521C89.5174 18.688 89.441 18.7656 89.2977 18.7656H84.7269V19.8242H88.5519C88.6858 19.8242 88.7717 19.9019 88.7717 20.0378V21.106C88.7717 21.242 88.6858 21.3196 88.5519 21.3196H84.7269V22.4365H89.2977C89.441 22.4365 89.5174 22.5141 89.5174 22.6501V23.7863C89.5174 23.9222 89.441 23.9998 89.2977 23.9998H83.0152C82.8718 23.9998 82.7954 23.9222 82.7954 23.7863V17.4159C82.7954 17.2799 82.8718 17.2023 83.0152 17.2023H89.2977Z" fill="white"/>
<path d="M31.0149 14.3901C31.3184 14.3901 31.4802 14.2258 31.4802 13.9378V11.5327C31.4802 11.2447 31.3184 11.0804 31.0149 11.0804H20.8594V14.3901H31.0149Z" fill="white"/>
<path d="M17.6437 11.0804C17.426 11.0804 17.25 11.2597 17.25 11.4802V13.9378C17.25 14.2258 17.4118 14.3901 17.7153 14.3901H20.2065V11.0804H17.6437Z" fill="#68A5E4"/>
<path d="M17.7069 5.54999C17.4545 5.54999 17.25 5.75764 17.25 6.014V8.25165C17.25 8.50801 17.4545 8.71566 17.7069 8.71566H20.2065V5.54999H17.7069Z" fill="#68A5E4"/>
<path d="M29.4565 8.7162C29.7026 8.7162 29.9018 8.51389 29.9018 8.26396V6.00223C29.9018 5.75229 29.7026 5.54999 29.4565 5.54999H20.8594V8.71566H29.4565V8.7162Z" fill="white"/>
<path d="M17.7168 0C17.4133 0 17.2515 0.164305 17.2515 0.452239V2.90236C17.2515 3.12714 17.4312 3.30964 17.6525 3.30964H20.208V0H17.7168Z" fill="#68A5E4"/>
<path d="M31.0149 3.30964C31.3184 3.30964 31.4802 3.14534 31.4802 2.8574V0.452239C31.4802 0.164305 31.3184 0 31.0149 0H20.8594V3.30964H31.0149Z" fill="white"/>
</svg>
